<svg id="logo_orange" data-name="logo orange" xmlns="http://www.w3.org/2000/svg" width="244" height="46.266" viewBox="0 0 244 46.266">
  <path id="Path_10" data-name="Path 10" d="M16.578,64.229h5.506V53.14H16.578a16.578,16.578,0,0,0,0,33.157h5.506V75.285H16.578a5.506,5.506,0,1,1,0-11.012" transform="translate(0 -42.128)" fill="#ff5c00"/>
  <path id="Path_11" data-name="Path 11" d="M112.266,0H106.76V11.012h5.506a5.506,5.506,0,0,1,0,11.012H106.76V33.037h5.506a16.578,16.578,0,0,0,0-33.037" transform="translate(-84.636)" fill="#ff5c00"/>
  <path id="Path_12" data-name="Path 12" d="M299.753,75.911c-1.1-3.108-3.108-4.822-6.217-4.822-4.406,0-7.158,3.523-7.158,9.282s2.881,9.2,7.154,9.2c3.061,0,5.011-1.388,6.41-4.23l2.2,1.355a8.99,8.99,0,0,1-8.613,5.3c-6.178,0-10.032-4.46-10.032-11.52s3.937-11.651,10.032-11.651a8.542,8.542,0,0,1,8.59,5.759Z" transform="translate(-224.75 -54.547)" fill="#ff5c00"/>
  <path id="Path_13" data-name="Path 13" d="M409.352,85.993a10.272,10.272,0,0,1-9.624,6.047c-6.217,0-10.208-4.23-10.208-11.75,0-6.729,4.041-11.421,9.976-11.421,6.41,0,9.669,4.922,9.669,11.464v.375H392.349v.319c0,5.759,3.305,8.59,7.479,8.59a8.03,8.03,0,0,0,7.433-4.924ZM392.494,78.43h13.7c0-3.579-2.423-7.346-6.7-7.346-4.041,0-6.683,2.885-7.058,7.346" transform="translate(-308.799 -54.598)" fill="#ff5c00"/>
  <path id="Path_14" data-name="Path 14" d="M527.329,91.18h-2.744v-11.9c0-3.479-.23-5.506-1.386-6.783a5.081,5.081,0,0,0-3.954-1.451,5.861,5.861,0,0,0-4.5,1.817,7.4,7.4,0,0,0-1.851,5.154V91.172H510.15V69.067h2.742v3.668c.829-2.137,3.3-4.174,7-4.174A7.085,7.085,0,0,1,525.4,70.7c1.4,1.575,1.948,3.063,1.948,7.985Z" transform="translate(-404.431 -54.343)" fill="#ff5c00"/>
  <path id="Path_15" data-name="Path 15" d="M609.52,37.135h4.4V28.865l2.742-.595v8.809h5.3v2.137h-5.3v15.01a4.216,4.216,0,0,0,.414,2.412,1.985,1.985,0,0,0,.785.514,1.954,1.954,0,0,0,.932.091,7.253,7.253,0,0,0,3.16-.738v2.456a9.379,9.379,0,0,1-3.993.752,3.964,3.964,0,0,1-3.164-1.1,5,5,0,0,1-.881-3.39V39.272h-4.4Z" transform="translate(-483.209 -22.412)" fill="#ff5c00"/>
  <path id="Path_16" data-name="Path 16" d="M701.733,71.263a8.99,8.99,0,0,0-1.529-.143c-3.854,0-6.607,2.974-6.607,7.433v12.5H690.82V68.94h2.744v4.273a6.94,6.94,0,0,1,6.683-4.824,8.5,8.5,0,0,1,1.486.133Z" transform="translate(-547.661 -54.216)" fill="#ff5c00"/>
  <path id="Path_17" data-name="Path 17" d="M757.713,75.537c-.1-4.406,3.523-6.917,8.358-6.917,4.559,0,7.84,1.388,7.84,6.961V86.593c0,1.8.145,2.874,1.774,2.874a3.73,3.73,0,0,0,1.674-.414V91.19a5.086,5.086,0,0,1-2.379.518c-2.136,0-3.711-1.169-3.622-3.579-.783,1.718-3.206,3.666-7.147,3.666-4.4,0-7.058-2.6-7.058-6.683a5.573,5.573,0,0,1,1.575-4.273c1.43-1.3,3.666-1.907,6.354-2.423l5.065-.926c.794-.143,1.1-.23,1.1-1.21v-.694c0-3.061-1.432-4.648-5.388-4.648-3.712,0-5.672,1.96-5.672,5.253Zm13.6,3.809a19.4,19.4,0,0,1-2.785.651l-2.742.506a13.784,13.784,0,0,0-3.937,1.169,3.548,3.548,0,0,0-1.927,3.39c0,2.918,2,4.406,4.833,4.406,3.622,0,6.5-2.369,6.5-6.035Z" transform="translate(-600.236 -54.4)" fill="#ff5c00"/>
  <path id="Path_18" data-name="Path 18" d="M875.52,87.431V100.2h-2.74V69.271h2.74v4a7.713,7.713,0,0,1,7.2-4.46c5.574,0,9.34,4.228,9.34,11.651S888.3,91.99,882.81,91.99a7.57,7.57,0,0,1-7.29-4.505Zm6.785,2.19c4.4,0,6.872-3.3,6.872-9.238s-2.694-9.195-6.971-9.195-6.772,3.2-6.772,9.238,2.644,9.195,6.874,9.195Z" transform="translate(-691.913 -54.548)" fill="#ff5c00"/>
  <path id="Path_19" data-name="Path 19" d="M985.421,75.537c-.1-4.406,3.523-6.917,8.36-6.917,4.547,0,7.842,1.388,7.842,6.961V86.593c0,1.8.141,2.874,1.772,2.874a3.742,3.742,0,0,0,1.674-.414V91.19a5.085,5.085,0,0,1-2.379.518c-2.137,0-3.712-1.169-3.625-3.579-.779,1.718-3.2,3.666-7.147,3.666-4.4,0-7.046-2.6-7.046-6.683a5.552,5.552,0,0,1,1.629-4.273c1.43-1.3,3.668-1.907,6.354-2.423l5.067-.926c.792-.143,1.1-.23,1.1-1.21v-.694c0-3.061-1.432-4.648-5.388-4.648-3.711,0-5.672,1.96-5.672,5.253Zm13.6,3.809a19.43,19.43,0,0,1-2.787.651l-2.74.506a13.815,13.815,0,0,0-3.937,1.169,3.554,3.554,0,0,0-1.865,3.39c0,2.918,2,4.406,4.835,4.406,3.622,0,6.5-2.369,6.5-6.035Z" transform="translate(-780.767 -54.4)" fill="#ff5c00"/>
  <path id="Path_20" data-name="Path 20" d="M1092.254,85.774l1.254,3.666c.232-.694.651-1.9,1.4-3.809l5.672-14.581h2.831L1093.5,96.179a30.044,30.044,0,0,1-1.851,4.2,4.192,4.192,0,0,1-4.041,2.2,5.723,5.723,0,0,1-2.874-.748V99.053a4.973,4.973,0,0,0,2.787.937,2.2,2.2,0,0,0,1.991-.98,11.369,11.369,0,0,0,1.212-2.6l1.212-3.249L1084.06,71.05h2.974Z" transform="translate(-859.409 -56.326)" fill="#ff5c00"/>
</svg>
