<svg xmlns="http://www.w3.org/2000/svg" width="249.366" height="24" viewBox="0 0 249.366 24">
  <g id="outlierventureslogo" transform="translate(-1.7 -1.1)">
    <g id="Group_10" data-name="Group 10" transform="translate(1.7 1.1)">
      <path id="Path_24" data-name="Path 24" d="M19.456,15.649A8.057,8.057,0,0,1,18.09,17.8a7.008,7.008,0,0,1-1.951,1.366,5.4,5.4,0,0,1-2.537.585,5.4,5.4,0,0,1-2.537-.585A7.008,7.008,0,0,1,9.115,17.8a8.057,8.057,0,0,1-1.366-2.146,11.516,11.516,0,0,1-.39-2.732,13.176,13.176,0,0,1,.39-2.732,6.853,6.853,0,0,1,3.317-3.317A5.4,5.4,0,0,1,13.6,6.283a5.4,5.4,0,0,1,2.537.585A7.008,7.008,0,0,1,18.09,8.234a8.057,8.057,0,0,1,1.366,2.146,9.886,9.886,0,0,1,.39,2.537,11.516,11.516,0,0,1-.39,2.732M22.188,4.527a9.563,9.563,0,0,0-3.9-2.146A11.807,11.807,0,0,0,13.6,1.6a11.807,11.807,0,0,0-4.683.78,9.563,9.563,0,0,0-3.9,2.146A17.685,17.685,0,0,0,2.48,8.234a9.15,9.15,0,0,0-.78,4.683A11.789,11.789,0,0,0,2.676,17.6a9.693,9.693,0,0,0,2.537,3.707A12,12,0,0,0,8.92,23.649a12.438,12.438,0,0,0,4.683.78,11.807,11.807,0,0,0,4.683-.78,12,12,0,0,0,3.707-2.341A12.5,12.5,0,0,0,24.529,17.6a11.727,11.727,0,0,0,0-9.366,12,12,0,0,0-2.341-3.707" transform="translate(-1.7 -0.624)" fill="#fff"/>
      <path id="Path_25" data-name="Path 25" d="M25.346,13.4a3.11,3.11,0,0,1-.78,2.341,2.4,2.4,0,0,1-1.951.976,2.475,2.475,0,0,1-1.171-.2c-.2-.2-.585-.39-.78-.78s-.39-.585-.39-.976V5.2H15.2v9.561a9.794,9.794,0,0,0,.39,2.341,6.1,6.1,0,0,0,.976,1.951,4.249,4.249,0,0,0,1.756,1.366A5.4,5.4,0,0,0,20.859,21a4.3,4.3,0,0,0,1.561-.2c.39-.2.976-.39,1.366-.585a4.257,4.257,0,0,0,.976-.78,3.426,3.426,0,0,0,.78-.976h0v2.146H30.42V5.2H25.346Z" transform="translate(11.141 2.8)" fill="#fff"/>
      <path id="Path_26" data-name="Path 26" d="M31.415,3.1H26.341V7.2H24V10.9h2.537v6.439a9.5,9.5,0,0,0,.2,2.341,7.909,7.909,0,0,0,.976,1.756,6.81,6.81,0,0,0,1.756,1.171A5.356,5.356,0,0,0,32,23a4.3,4.3,0,0,0,1.561-.2,2.82,2.82,0,0,0,1.366-.39V18.71c-.2,0-.39.2-.78.2h-.78A1.921,1.921,0,0,1,31.8,18.32a3.676,3.676,0,0,1-.39-1.561V10.9h3.707V7.2H31.415Z" transform="translate(19.512 0.802)" fill="#fff"/>
      <rect id="Rectangle_30" data-name="Rectangle 30" width="5.073" height="23.415" transform="translate(56.976)" fill="#fff"/>
      <path id="Path_27" data-name="Path 27" d="M40.173,1.98A4.265,4.265,0,0,0,39.2,1.4a2.475,2.475,0,0,0-1.171-.2,2.475,2.475,0,0,0-1.171.2c-.39.2-.585.39-.976.585a4.265,4.265,0,0,0-.585.976,2.122,2.122,0,0,0-.2.976,2.505,2.505,0,0,0,.78,1.951,2.665,2.665,0,0,0,2.146.78,2.475,2.475,0,0,0,1.171-.2c.39-.2.585-.39.976-.585a4.265,4.265,0,0,0,.585-.976,2.475,2.475,0,0,0,.2-1.171,2.475,2.475,0,0,0-.2-1.171l-.585-.585" transform="translate(30.071 -1.005)" fill="#fff"/>
      <rect id="Rectangle_31" data-name="Rectangle 31" width="5.073" height="15.415" transform="translate(65.756 8)" fill="#fff"/>
      <path id="Path_28" data-name="Path 28" d="M44.183,11.281a2.773,2.773,0,0,1,.39-1.171,3.426,3.426,0,0,1,.78-.976,4.265,4.265,0,0,1,.976-.585,2.893,2.893,0,0,1,1.366-.2,3.11,3.11,0,0,1,2.341.78,2.665,2.665,0,0,1,.78,2.146Zm8.976-4.1a4.338,4.338,0,0,0-2.537-1.561A8.089,8.089,0,0,0,47.5,5.037a5.563,5.563,0,0,0-3.122.39,8.02,8.02,0,0,0-2.537,1.561,7.425,7.425,0,0,0-1.756,2.537,9.452,9.452,0,0,0-.585,3.512,9.452,9.452,0,0,0,.585,3.512,5.942,5.942,0,0,0,1.756,2.537,7.656,7.656,0,0,0,2.732,1.561,9.115,9.115,0,0,0,3.317.585,9.05,9.05,0,0,0,4.1-.78,8.639,8.639,0,0,0,2.927-2.341L51.4,15.964a8.487,8.487,0,0,1-1.366,1.171,3.209,3.209,0,0,1-1.951.39,3.321,3.321,0,0,1-1.366-.2l-1.171-.585a1.948,1.948,0,0,1-.78-.976,2.773,2.773,0,0,1-.39-1.171H55.5V13.232a9.452,9.452,0,0,0-.585-3.512,14.238,14.238,0,0,0-1.756-2.537" transform="translate(34.256 2.572)" fill="#fff"/>
      <path id="Path_29" data-name="Path 29" d="M57.976,5a3.922,3.922,0,0,0-2.537.78,5.535,5.535,0,0,0-1.756,1.951h0V5.39H49V20.8h5.073v-8a2.9,2.9,0,0,1,.2-1.171l.585-1.171c.2-.39.585-.585,1.171-.976A3.9,3.9,0,0,1,57.78,9.1h.585a.717.717,0,0,1,.585.2L59.146,5H57.976" transform="translate(43.293 2.61)" fill="#fff"/>
      <path id="Path_30" data-name="Path 30" d="M74.68,1.9,69.022,17.315h0L63.363,1.9H57.9l8.39,21.854h5.268L79.949,1.9Z" transform="translate(51.759 -0.339)" fill="#fff"/>
      <path id="Path_31" data-name="Path 31" d="M72.878,11.244a2.773,2.773,0,0,1,.39-1.171,3.426,3.426,0,0,1,.781-.976,6.5,6.5,0,0,1,1.171-.585,2.893,2.893,0,0,1,1.366-.2,3.11,3.11,0,0,1,2.341.78,2.665,2.665,0,0,1,.781,2.146Zm8.976-4.1a4.338,4.338,0,0,0-2.537-1.561A8.089,8.089,0,0,0,76.2,5a9.114,9.114,0,0,0-3.317.585,8.02,8.02,0,0,0-2.537,1.561,7.425,7.425,0,0,0-1.756,2.537A9.452,9.452,0,0,0,68,13.2a9.452,9.452,0,0,0,.585,3.512,5.942,5.942,0,0,0,1.756,2.537A7.656,7.656,0,0,0,73.073,20.8a10.447,10.447,0,0,0,7.415-.2,8.639,8.639,0,0,0,2.927-2.341L79.9,16.122a8.487,8.487,0,0,1-1.366,1.171,3.209,3.209,0,0,1-1.951.39,3.321,3.321,0,0,1-1.366-.2L74.049,16.9a1.948,1.948,0,0,1-.781-.976,2.773,2.773,0,0,1-.39-1.171H84V13.2a9.452,9.452,0,0,0-.585-3.512,8.02,8.02,0,0,0-1.561-2.537" transform="translate(61.366 2.61)" fill="#fff"/>
      <path id="Path_32" data-name="Path 32" d="M91.149,6.951a4.249,4.249,0,0,0-1.756-1.366A5.666,5.666,0,0,0,86.661,5a4.3,4.3,0,0,0-1.561.2c-.39.2-.976.39-1.366.585a4.257,4.257,0,0,0-.976.78,3.426,3.426,0,0,0-.78.976h0V5.39H77.1V20.8h5.073v-8.39a2.475,2.475,0,0,1,.2-1.171c.2-.39.2-.78.585-.976.2-.39.585-.585.78-.78a3.61,3.61,0,0,1,2.341,0,1.523,1.523,0,0,1,.78.78c.2.39.2.585.39.976,0,.39.2.78.2,1.171V20.8h5.073V11.244a9.794,9.794,0,0,0-.39-2.341,6.1,6.1,0,0,0-.976-1.951" transform="translate(70.022 2.61)" fill="#fff"/>
      <path id="Path_33" data-name="Path 33" d="M93.41,3.1H88.337V7.2H85.8V10.9h2.537v6.439a9.5,9.5,0,0,0,.2,2.341,3.988,3.988,0,0,0,.976,1.756,6.81,6.81,0,0,0,1.756,1.171A5.356,5.356,0,0,0,93.8,23a4.3,4.3,0,0,0,1.561-.2,2.82,2.82,0,0,0,1.366-.39V18.71c-.2,0-.39.2-.78.2h-.781A1.921,1.921,0,0,1,93.6,18.32a3.676,3.676,0,0,1-.39-1.561V10.9h3.707V7.2H93.215l.2-4.1Z" transform="translate(78.298 0.802)" fill="#fff"/>
      <path id="Path_34" data-name="Path 34" d="M102.846,13.4a3.11,3.11,0,0,1-.78,2.341,2.4,2.4,0,0,1-1.951.976,2.475,2.475,0,0,1-1.171-.2c-.2-.2-.585-.39-.78-.78s-.39-.585-.39-.976V5.2H92.7v9.561c0,.78.2,1.561.2,2.341a6.1,6.1,0,0,0,.976,1.951,4.249,4.249,0,0,0,1.756,1.366A5.4,5.4,0,0,0,98.163,21a4.3,4.3,0,0,0,1.561-.2c.39-.2.976-.39,1.366-.585a4.256,4.256,0,0,0,.976-.78,3.425,3.425,0,0,0,.78-.976h0v2.146h4.878V5.2h-5.073l.2,8.2Z" transform="translate(84.861 2.8)" fill="#fff"/>
      <path id="Path_35" data-name="Path 35" d="M111.171,5.1a3.922,3.922,0,0,0-2.537.78,5.534,5.534,0,0,0-1.756,1.951h0V5.485H102V20.9h5.073v-8a2.9,2.9,0,0,1,.2-1.171l.585-1.171c.2-.39.585-.585,1.171-.976a3.9,3.9,0,0,1,1.756-.39h.585a.717.717,0,0,1,.585.2l.2-4.488h-.39a.717.717,0,0,1-.585.2" transform="translate(93.707 2.515)" fill="#fff"/>
      <path id="Path_36" data-name="Path 36" d="M112.478,11.244a2.773,2.773,0,0,1,.39-1.171,3.425,3.425,0,0,1,.78-.976,6.5,6.5,0,0,1,1.171-.585,2.893,2.893,0,0,1,1.366-.2,3.11,3.11,0,0,1,2.341.78,2.665,2.665,0,0,1,.78,2.146Zm8.976-4.1a4.338,4.338,0,0,0-2.537-1.561A8.089,8.089,0,0,0,115.8,5a9.115,9.115,0,0,0-3.317.585,8.02,8.02,0,0,0-2.537,1.561,7.425,7.425,0,0,0-1.756,2.537A9.453,9.453,0,0,0,107.6,13.2a9.452,9.452,0,0,0,.585,3.512,5.942,5.942,0,0,0,1.756,2.537,7.656,7.656,0,0,0,2.732,1.561,10.447,10.447,0,0,0,7.415-.2,8.639,8.639,0,0,0,2.927-2.341L119.5,16.122a8.486,8.486,0,0,1-1.366,1.171,3.209,3.209,0,0,1-1.951.39,3.32,3.32,0,0,1-1.366-.2l-1.171-.585a1.948,1.948,0,0,1-.78-.976,2.773,2.773,0,0,1-.39-1.171H123.6V13.2a9.452,9.452,0,0,0-.585-3.512,8.02,8.02,0,0,0-1.561-2.537" transform="translate(99.034 2.61)" fill="#fff"/>
      <path id="Path_37" data-name="Path 37" d="M128.4,12.8a10.891,10.891,0,0,0-1.561-.976l-1.756-.585a10.354,10.354,0,0,1-2.146-.585,1.106,1.106,0,0,1,0-1.951,2.893,2.893,0,0,1,1.366-.2,5.7,5.7,0,0,1,1.756.39,3.5,3.5,0,0,1,1.366.976l2.732-2.927a7.656,7.656,0,0,0-2.732-1.561A9.911,9.911,0,0,0,124.11,4.8a7.014,7.014,0,0,0-2.146.39,10.458,10.458,0,0,0-2.146.976,5.939,5.939,0,0,0-1.561,1.561,4.161,4.161,0,0,0-.585,2.341,5.772,5.772,0,0,0,.39,1.951,3.5,3.5,0,0,0,.976,1.366,4.891,4.891,0,0,0,1.366.78c.585.2.976.39,1.561.585a6.583,6.583,0,0,1,2.341.78,1,1,0,0,1,.78.976.9.9,0,0,1-.585.976,2.773,2.773,0,0,1-1.171.39,4.447,4.447,0,0,1-2.146-.585l-1.756-1.171L116.5,19.044a7.347,7.347,0,0,0,2.927,1.756,11.361,11.361,0,0,0,3.707.585,9.5,9.5,0,0,0,2.341-.2,4.331,4.331,0,0,0,2.146-.976,5.938,5.938,0,0,0,1.561-1.561,4.882,4.882,0,0,0,.585-2.537,5.773,5.773,0,0,0-.39-1.951A5.929,5.929,0,0,0,128.4,12.8" transform="translate(107.5 2.42)" fill="#fff"/>
    </g>
    <path id="Path_38" data-name="Path 38" d="M132.924,5.512a4.11,4.11,0,0,1-.976,2.537,4.11,4.11,0,0,1-2.537.976,2.893,2.893,0,0,1-1.366-.2,4.082,4.082,0,0,1-1.171-.78,2.488,2.488,0,0,1-.78-1.171,3.32,3.32,0,0,1-.2-1.366,3.32,3.32,0,0,1,.2-1.366,4.082,4.082,0,0,1,.78-1.171,4.082,4.082,0,0,1,1.171-.78,3.32,3.32,0,0,1,1.366-.2,4.11,4.11,0,0,1,2.537.976,3.709,3.709,0,0,1,.976,2.537" transform="translate(118.142 0.856)" fill="#5337c6"/>
  </g>
</svg>
