<svg xmlns="http://www.w3.org/2000/svg" width="100.228" height="72" viewBox="0 0 100.228 72">
  <g id="Group" transform="translate(0 -0.571)">
    <path id="Path_39" data-name="Path 39" d="M16.609,20.646c-.863-.863-2.3-1.15-4.386-1.007l-6.83.575C1.8,20.5,0,22.012,0,24.6v14.02c0,2.876,1.941,4.53,5.536,4.817l6.759.575c.288,0,.575.072.863.072a4.964,4.964,0,0,0,3.451-1.078A4.742,4.742,0,0,0,17.9,39.34v-4.6a.644.644,0,0,0-.647-.647l-5.536-.072a.777.777,0,0,0-.5.216.653.653,0,0,0-.216.5v4.026c0,.072,0,.072-.072.144a.251.251,0,0,1-.144.072l-3.739-.216a.155.155,0,0,1-.144-.144V25.247a.155.155,0,0,1,.144-.144l3.739-.216c.072,0,.072,0,.144.072A.251.251,0,0,1,11,25.1v2.876a.737.737,0,0,0,.719.719l5.536-.144a.644.644,0,0,0,.647-.647V24.6C17.9,22.659,17.472,21.437,16.609,20.646Z" transform="translate(0 -11.993)" fill="#fff"/>
    <path id="Path_40" data-name="Path 40" d="M70.339,14.645,56.247,15.8a.7.7,0,0,0-.647.647V40.888a.644.644,0,0,0,.647.647l14.092,1.15h.072a.771.771,0,0,0,.431-.144.653.653,0,0,0,.216-.5V37.581a.644.644,0,0,0-.647-.647l-7.693-.359a.155.155,0,0,1-.144-.144V31.757c0-.072,0-.072.072-.144a.251.251,0,0,1,.144-.072l5.321.072a.777.777,0,0,0,.5-.216.653.653,0,0,0,.216-.5V26.58a.737.737,0,0,0-.719-.719L62.718,26c-.072,0-.072,0-.144-.072a.251.251,0,0,1-.072-.144V21.044a.155.155,0,0,1,.144-.144l7.693-.359a.644.644,0,0,0,.647-.647v-4.53a.653.653,0,0,0-.216-.5A.512.512,0,0,0,70.339,14.645Z" transform="translate(-35.036 -8.868)" fill="#fff"/>
    <path id="Path_41" data-name="Path 41" d="M110.342,40.15a.652.652,0,0,0,.216-.5v-10.5c0-.863,0-2.085-.072-3.883,0-.144.072-.144.144-.144s.144,0,.144.144a42.413,42.413,0,0,0,1.51,5.464c1.15,3.164,2.229,6.471,3.379,9.706a.547.547,0,0,0,.575.431l7.478.575h.072a.77.77,0,0,0,.431-.144.652.652,0,0,0,.216-.5V10.383a.652.652,0,0,0-.216-.5.477.477,0,0,0-.5-.144l-4.6.359a.7.7,0,0,0-.647.647V24.332c0,1.15.072,2.588.144,4.314,0,.144-.072.144-.144.144s-.144,0-.216-.144c-.575-2.516-1.151-4.6-1.726-6.327-1.222-3.739-2.445-7.549-3.667-11.216a.6.6,0,0,0-.719-.431l-6.9.575a.7.7,0,0,0-.647.647V39.287a.644.644,0,0,0,.647.647l4.53.359A.775.775,0,0,0,110.342,40.15Z" transform="translate(-65.908 -5.758)" fill="#fff"/>
    <path id="Path_42" data-name="Path 42" d="M185.269,4.73l-4.53.359a.7.7,0,0,0-.647.647V21.051c0,1.294.072,2.876.144,4.817,0,.144-.072.144-.144.144s-.144,0-.144-.144q-.863-4.206-1.726-7.118C177,14.437,175.707,10.195,174.484,6.1a.714.714,0,0,0-.719-.5l-6.9.575a.7.7,0,0,0-.647.647V37.876a.645.645,0,0,0,.647.647l4.53.36a1.04,1.04,0,0,0,.5-.144.652.652,0,0,0,.216-.5V26.444c0-1.007,0-2.373-.072-4.386,0-.144.072-.144.143-.144s.144,0,.144.144a50.318,50.318,0,0,0,1.51,6.111c1.15,3.595,2.229,7.262,3.379,10.929a.7.7,0,0,0,.575.5l7.478.575h.072a.772.772,0,0,0,.432-.144.653.653,0,0,0,.216-.5V5.449a.652.652,0,0,0-.216-.5A.777.777,0,0,0,185.269,4.73Z" transform="translate(-104.742 -2.621)" fill="#fff"/>
    <path id="Path_43" data-name="Path 43" d="M242.752,8.149c0-.072.072-.144.072-.216V1.247a.652.652,0,0,0-.216-.5A.477.477,0,0,0,242.1.6l-15.1,1.222a.7.7,0,0,0-.647.647V8.58a.738.738,0,0,0,.719.719l7.694-.359a.25.25,0,0,1,.143.072.1.1,0,0,1,0,.144c-2.8,7.478-5.68,14.739-8.556,21.642,0,.072-.072.144-.072.288v6.183a.645.645,0,0,0,.647.647l15.1,1.222h.072a.771.771,0,0,0,.431-.144.653.653,0,0,0,.216-.5V31.948a.645.645,0,0,0-.647-.647l-7.837-.5a.25.25,0,0,1-.144-.072.1.1,0,0,1,0-.144Q238.438,19.8,242.752,8.149Z" transform="translate(-142.596 0)" fill="#fff"/>
    <path id="Path_44" data-name="Path 44" d="M132.585,101.181l-4.53-.359a1.041,1.041,0,0,0-.5.144.653.653,0,0,0-.216.5v14.524c0,1.222.072,2.8.144,4.673,0,.144-.072.144-.144.144s-.144,0-.216-.144c-.575-2.66-1.151-5.033-1.726-6.9-1.222-4.242-2.516-8.7-3.739-13.086a.61.61,0,0,0-.575-.5l-6.831-.575a1.04,1.04,0,0,0-.5.144.654.654,0,0,0-.216.5v34.081a.654.654,0,0,0,.216.5.529.529,0,0,0,.432.144h.072l4.53-.359a.644.644,0,0,0,.647-.647v-12.51c0-1.007,0-2.445-.072-4.6,0-.144.072-.144.144-.144s.144,0,.144.144a50.262,50.262,0,0,0,1.51,6.255c1.078,3.595,2.229,7.118,3.379,10.569a.6.6,0,0,0,.719.432l7.478-.647a.645.645,0,0,0,.647-.647V101.828A.916.916,0,0,0,132.585,101.181Z" transform="translate(-71.543 -62.403)" fill="#fff"/>
    <path id="Path_45" data-name="Path 45" d="M189.97,106.071l-14.092-1.222a1.04,1.04,0,0,0-.5.143.653.653,0,0,0-.216.5v30.2a.653.653,0,0,0,.216.5.528.528,0,0,0,.431.144h.072l14.092-1.222a.644.644,0,0,0,.647-.647V129.8a.737.737,0,0,0-.719-.719l-7.621.431c-.072,0-.072,0-.144-.072a.25.25,0,0,1-.072-.144V123.83a.155.155,0,0,1,.144-.143l5.321-.072a.644.644,0,0,0,.647-.647v-4.674a.644.644,0,0,0-.647-.647l-5.321-.072a.155.155,0,0,1-.144-.144v-5.536c0-.072,0-.072.072-.144a.251.251,0,0,1,.144-.072l7.621.431a.737.737,0,0,0,.719-.719v-4.673A.644.644,0,0,0,189.97,106.071Z" transform="translate(-110.377 -65.711)" fill="#fff"/>
    <path id="Path_46" data-name="Path 46" d="M240.2,110.563c-2.876-.216-5.537-.5-8.053-.719-2.588-.216-5.248-.5-8.053-.719a1.042,1.042,0,0,0-.5.144.653.653,0,0,0-.216.5v4.6a.644.644,0,0,0,.647.647c.791.072,1.582.072,2.3.144s1.438.072,2.3.144a.155.155,0,0,1,.144.144V136.3a.654.654,0,0,0,.216.5.529.529,0,0,0,.432.144h.072l5.608-.5a.644.644,0,0,0,.647-.647V115.884c0-.072,0-.072.072-.144a.25.25,0,0,1,.144-.072c.791.072,1.51.072,2.157.144s1.366.072,2.157.144a.737.737,0,0,0,.719-.719V111.21A1.4,1.4,0,0,0,240.2,110.563Z" transform="translate(-140.758 -68.406)" fill="#fff"/>
  </g>
</svg>
