<svg xmlns="http://www.w3.org/2000/svg" width="21" height="24" viewBox="0 0 21 24">
  <path id="Icon_awesome-discord" data-name="Icon awesome-discord" d="M13.932,11.4a1.228,1.228,0,1,1-1.224-1.332A1.278,1.278,0,0,1,13.932,11.4Zm-5.6-1.332a1.337,1.337,0,0,0,0,2.664A1.278,1.278,0,0,0,9.552,11.4,1.271,1.271,0,0,0,8.328,10.068ZM21,2.472V24c-3.023-2.672-2.056-1.787-5.568-5.052l.636,2.22H2.46A2.466,2.466,0,0,1,0,18.7V2.472A2.466,2.466,0,0,1,2.46,0H18.54A2.466,2.466,0,0,1,21,2.472ZM17.58,13.848a16.07,16.07,0,0,0-1.728-7,5.934,5.934,0,0,0-3.372-1.26l-.168.192A7.986,7.986,0,0,1,15.3,7.308,10.2,10.2,0,0,0,6.336,6.96c-.444.2-.708.348-.708.348A8.1,8.1,0,0,1,8.784,5.736l-.12-.144a5.934,5.934,0,0,0-3.372,1.26,16.07,16.07,0,0,0-1.728,7,4.351,4.351,0,0,0,3.66,1.824s.444-.54.8-1a3.732,3.732,0,0,1-2.1-1.416c.177.124.468.284.492.3a8.747,8.747,0,0,0,7.488.42,6.867,6.867,0,0,0,1.38-.708A3.787,3.787,0,0,1,13.116,14.7c.36.456.792.972.792.972A4.386,4.386,0,0,0,17.58,13.848Z"/>
</svg>
