<?xml version="1.0" encoding="UTF-8"?><svg xmlns="http://www.w3.org/2000/svg" xmlns:xlink="http://www.w3.org/1999/xlink" viewBox="0 0 650 105.19"><defs><style>.g{fill:#fff;}.h{fill:url(#f);}.i{fill:url(#d);}.j{fill:url(#e);}</style><linearGradient id="d" x1="17.23" y1="7.34" x2="17.23" y2="104.99" gradientTransform="matrix(1, 0, 0, 1, 0, 0)" gradientUnits="userSpaceOnUse"><stop offset="0" stop-color="#fc34ff"/><stop offset=".03" stop-color="#f434ff"/><stop offset=".28" stop-color="#bb34ff"/><stop offset=".51" stop-color="#8f34ff"/><stop offset=".71" stop-color="#6e34ff"/><stop offset=".88" stop-color="#5b34ff"/><stop offset="1" stop-color="#5434ff"/></linearGradient><linearGradient id="e" x1="51.7" y1="46.21" x2="51.7" y2="102.37" gradientTransform="matrix(1, 0, 0, 1, 0, 0)" gradientUnits="userSpaceOnUse"><stop offset="0" stop-color="#5434ff" stop-opacity="0"/><stop offset="0" stop-color="#5434ff" stop-opacity="0"/><stop offset=".12" stop-color="#5434ff" stop-opacity=".24"/><stop offset=".25" stop-color="#5434ff" stop-opacity=".44"/><stop offset=".37" stop-color="#5434ff" stop-opacity=".61"/><stop offset=".5" stop-color="#5434ff" stop-opacity=".75"/><stop offset=".62" stop-color="#5434ff" stop-opacity=".86"/><stop offset=".75" stop-color="#5434ff" stop-opacity=".94"/><stop offset=".87" stop-color="#5434ff" stop-opacity=".98"/><stop offset="1" stop-color="#5434ff"/></linearGradient><linearGradient id="f" x1="87.33" y1="70.65" x2="87.33" y2="103.88" gradientTransform="matrix(1, 0, 0, 1, 0, 0)" gradientUnits="userSpaceOnUse"><stop offset="0" stop-color="#4ba5ff" stop-opacity="0"/><stop offset="0" stop-color="#4ba5ff" stop-opacity="0"/><stop offset=".08" stop-color="#4ba5ff" stop-opacity=".21"/><stop offset=".17" stop-color="#4ba5ff" stop-opacity=".4"/><stop offset=".26" stop-color="#4ba5ff" stop-opacity=".56"/><stop offset=".35" stop-color="#4ba5ff" stop-opacity=".7"/><stop offset=".45" stop-color="#4ba5ff" stop-opacity=".81"/><stop offset=".55" stop-color="#4ba5ff" stop-opacity=".89"/><stop offset=".67" stop-color="#4ba5ff" stop-opacity=".95"/><stop offset=".8" stop-color="#4ba5ff" stop-opacity=".99"/><stop offset=".99" stop-color="#4ba5ff"/></linearGradient></defs><g id="a"/><g id="b"><g id="c"><g><g><path class="g" d="M156.2,58.61h9.32v46.58h-9.32V58.61Z"/><path class="g" d="M251.88,58.61v46.58h-9.32v-36.6l-30.28,34.32-30.28-34.32v36.6h-9.32V58.61h12.94l26.66,30.21,26.66-30.21h12.94Z"/><path class="g" d="M338.28,58.61v46.58h-9.32v-36.6l-30.28,34.32-30.28-34.32v36.6h-9.32V58.61h12.94l26.66,30.21,26.66-30.21h12.94Z"/><path class="g" d="M401.37,58.61v9.29h-46.58v9.32h46.58v9.32h-46.58v9.32h46.58v9.32h-55.9V58.61h55.9Z"/><path class="g" d="M408.43,58.61h55.9v4.63c0,3.76-.85,7.29-2.54,10.59-1.63,3.19-3.89,5.88-6.78,8.05,2.89,2.17,5.15,4.87,6.78,8.08,1.69,3.3,2.54,6.82,2.54,10.56v4.66h-9.32v-4.66c0-3.85-1.36-7.14-4.08-9.87-2.74-2.74-6.03-4.11-9.87-4.11h-23.31v18.64h-9.32V58.61Zm9.32,18.61h23.31c3,0,5.71-.87,8.15-2.61,2.37-1.72,4.04-3.95,5.02-6.71h-36.47v9.32Z"/><path class="g" d="M470.75,77.23c0-5.13,1.82-9.52,5.48-13.17,3.63-3.63,8.02-5.44,13.17-5.44h37.25v9.29h-37.25c-2.56,0-4.76,.91-6.58,2.74-1.82,1.82-2.74,4.02-2.74,6.58h46.58v9.32c0,5.15-1.81,9.54-5.44,13.17-3.65,3.65-8.04,5.48-13.17,5.48h-37.29v-9.32h37.29c2.56,0,4.76-.91,6.58-2.74,1.8-1.83,2.71-4.02,2.71-6.58h-46.58v-9.32Z"/><path class="g" d="M587.69,58.61l-16.95,46.58h-20.73l-16.95-46.58h9.91l13.56,37.25h7.69l13.56-37.25h9.91Z"/><path class="g" d="M650,58.61v9.29h-46.58v9.32h46.58v9.32h-46.58v9.32h46.58v9.32h-55.9V58.61h55.9Z"/></g><g><path class="i" d="M34.47,46.8v56.61H17.98V39.71c0-7.8-4.97-14.44-11.92-16.93C2.37,21.45,0,17.83,0,13.9V0H17.98V20.73c0,7.13,4.15,13.29,10.17,16.19,3.82,1.84,6.32,5.63,6.32,9.87Z"/><path class="j" d="M68.93,69.05v34.35h-16.48V61.97c0-7.8-4.97-14.44-11.92-16.93-3.7-1.32-6.06-4.95-6.06-8.88V0h17.98l-6.93,44.56c0,7.13,11.08,11.72,17.1,14.62,3.82,1.84,6.32,5.63,6.32,9.87Z"/><path class="h" d="M104.57,91.33v12.07h-16.48v-19.16c0-7.8-4.97-14.44-11.92-16.93-3.7-1.32-6.06-4.95-6.06-8.88V0h17.98l-7.48,65.74c0,7.13,11.63,12.82,17.65,15.72,3.82,1.84,6.32,5.63,6.32,9.87Z"/></g></g></g></g></svg>